<?xml version="1.0" encoding="UTF-8" standalone="no"?>
<!-- Created with Inkscape (http://www.inkscape.org/) -->

<svg
   width="210mm"
   height="297mm"
   viewBox="0 0 210 297"
   version="1.1"
   id="svg1"
   inkscape:version="1.3 (0e150ed6c4, 2023-07-21)"
   sodipodi:docname="currency compass logo.svg"
   xmlns:inkscape="http://www.inkscape.org/namespaces/inkscape"
   xmlns:sodipodi="http://sodipodi.sourceforge.net/DTD/sodipodi-0.dtd"
   xmlns="http://www.w3.org/2000/svg"
   xmlns:svg="http://www.w3.org/2000/svg">
  <sodipodi:namedview
     id="namedview1"
     pagecolor="#ffffff"
     bordercolor="#000000"
     borderopacity="0.25"
     inkscape:showpageshadow="2"
     inkscape:pageopacity="0.0"
     inkscape:pagecheckerboard="0"
     inkscape:deskcolor="#d1d1d1"
     inkscape:document-units="mm"
     inkscape:zoom="2.1951737"
     inkscape:cx="-922.25047"
     inkscape:cy="1583.246"
     inkscape:window-width="1920"
     inkscape:window-height="991"
     inkscape:window-x="-9"
     inkscape:window-y="-9"
     inkscape:window-maximized="1"
     inkscape:current-layer="layer1" />
  <defs
     id="defs1" />
  <g
     inkscape:label="Layer 1"
     inkscape:groupmode="layer"
     id="layer1">
    <text
       xml:space="preserve"
       style="font-size:17.6389px;font-family:'Century Gothic';-inkscape-font-specification:'Century Gothic';fill:#000000;stroke-width:4.99999"
       x="0"
       y="84.85714"
       id="text1"><tspan
         sodipodi:role="line"
         id="tspan1"
         style="font-style:normal;font-variant:normal;font-weight:normal;font-stretch:normal;font-size:17.6389px;font-family:Merriweather;-inkscape-font-specification:Merriweather;fill:#000000;stroke-width:5"
         x="0"
         y="84.85714">The CurrencyCompass</tspan></text>
    <text
       xml:space="preserve"
       style="font-style:normal;font-variant:normal;font-weight:normal;font-stretch:normal;font-size:17.6389px;font-family:Merriweather;-inkscape-font-specification:Merriweather;fill:#000000;stroke-width:4.99999"
       x="20.177193"
       y="51.119934"
       id="text2"><tspan
         sodipodi:role="line"
         id="tspan2"
         style="stroke-width:5"
         x="20.177193"
         y="51.119934">naira watch</tspan></text>
    <circle
       style="fill:none;stroke:#000000;stroke-width:20;stroke-dasharray:none;paint-order:markers fill stroke"
       id="path1"
       cx="100.45871"
       cy="219.06523"
       r="81.712738" />
    <path
       id="rect1"
       style="stroke:none;stroke-width:4.52558;paint-order:markers fill stroke"
       d="m 141.67059,161.66133 c -0.0514,-0.0336 -0.15477,0.0109 -0.29776,0.14105 l -65.007006,59.19595 c -0.285999,0.26043 -0.639889,0.756 -0.748423,1.12577 l -10.190854,42.17472 41.336513,-4.62769 c 0.28599,-0.26046 0.61933,-0.76289 0.74788,-1.12631 l 34.14628,-96.55631 c 0.0643,-0.1817 0.0647,-0.29358 0.0133,-0.32718 z m -50.743653,69.80883 a 9.2903287,9.5194993 0 0 1 9.290083,9.51945 9.2903287,9.5194993 0 0 1 -9.290083,9.51946 9.2903287,9.5194993 0 0 1 -9.290607,-9.51946 9.2903287,9.5194993 0 0 1 9.290607,-9.51945 z" />
    <g
       id="g4"
       transform="matrix(0.26837224,0,0,0.26837224,-288.53963,58.917681)">
      <circle
         style="fill:none;stroke:#000000;stroke-width:24.983;stroke-dasharray:none"
         id="circle3"
         cx="101.76195"
         cy="219.06523"
         r="81.712738" />
      <path
         id="path3"
         style="stroke:none;stroke-width:4.39245"
         d="m 141.8332,155.54244 c -0.0497,-0.0327 -0.1496,0.0106 -0.28783,0.13746 l -62.83958,57.68795 c -0.276464,0.2538 -0.618555,0.73674 -0.72347,1.0971 l -9.851078,41.10033 39.958288,-4.5098 c 0.27646,-0.25382 0.59868,-0.74346 0.72295,-1.09761 l 33.0078,-94.09658 c 0.0621,-0.17707 0.0626,-0.28611 0.0129,-0.31885 z m -49.051783,68.03048 a 8.9805775,9.2769938 0 0 1 8.980333,9.27695 8.9805775,9.2769938 0 0 1 -8.980333,9.27695 8.9805775,9.2769938 0 0 1 -8.980847,-9.27695 8.9805775,9.2769938 0 0 1 8.980847,-9.27695 z" />
    </g>
    <g
       id="g6"
       transform="matrix(0.33732148,0,0,0.33732148,-295.49867,118.69183)"
       inkscape:export-filename="g6.svg"
       inkscape:export-xdpi="96"
       inkscape:export-ydpi="96">
      <circle
         style="fill:none;stroke:#000000;stroke-width:20;stroke-dasharray:none;paint-order:markers fill stroke"
         id="circle5"
         cx="100.45871"
         cy="219.06523"
         r="81.712738" />
      <path
         id="path5"
         style="stroke:none;stroke-width:4.52558;paint-order:markers fill stroke"
         d="m 141.67059,161.66133 c -0.0514,-0.0336 -0.15477,0.0109 -0.29776,0.14105 l -65.007006,59.19595 c -0.285999,0.26043 -0.639889,0.756 -0.748423,1.12577 l -10.190854,42.17472 41.336513,-4.62769 c 0.28599,-0.26046 0.61933,-0.76289 0.74788,-1.12631 l 34.14628,-96.55631 c 0.0643,-0.1817 0.0647,-0.29358 0.0133,-0.32718 z m -50.743653,69.80883 a 9.2903287,9.5194993 0 0 1 9.290083,9.51945 9.2903287,9.5194993 0 0 1 -9.290083,9.51946 9.2903287,9.5194993 0 0 1 -9.290607,-9.51946 9.2903287,9.5194993 0 0 1 9.290607,-9.51945 z" />
    </g>
    <g
       id="g7"
       inkscape:export-filename="g7.svg"
       inkscape:export-xdpi="96"
       inkscape:export-ydpi="96">
      <circle
         style="fill:none;stroke:#ffffff;stroke-width:6.74643;stroke-dasharray:none;paint-order:markers fill stroke"
         id="circle6"
         cx="-266.88443"
         cy="279.84128"
         r="27.563461" />
      <path
         id="path6"
         style="stroke:none;stroke-width:1.52658;paint-order:markers fill stroke;fill:#ffffff"
         d="m -252.98277,260.47772 c -0.0173,-0.0113 -0.0522,0.004 -0.10044,0.0476 l -21.92826,19.96806 c -0.0965,0.0879 -0.21585,0.25502 -0.25246,0.37975 l -3.43759,14.22644 13.94369,-1.56102 c 0.0965,-0.0879 0.20892,-0.25734 0.25228,-0.37993 l 11.51827,-32.57052 c 0.0217,-0.0613 0.0218,-0.099 0.004,-0.11036 z m -17.11692,23.54802 a 3.1338274,3.2111316 0 0 1 3.13374,3.21111 3.1338274,3.2111316 0 0 1 -3.13374,3.21112 3.1338274,3.2111316 0 0 1 -3.13392,-3.21112 3.1338274,3.2111316 0 0 1 3.13392,-3.21111 z" />
    </g>
    <circle
       style="fill:none;stroke:#000000;stroke-width:20;stroke-dasharray:none;paint-order:markers fill stroke"
       id="circle8"
       cx="100.45871"
       cy="219.06523"
       r="81.712738" />
    <circle
       style="fill:none;stroke:#000000;stroke-width:20;stroke-dasharray:none;paint-order:markers fill stroke"
       id="circle9"
       cx="100.45871"
       cy="219.06523"
       r="81.712738" />
    <path
       id="path9"
       style="stroke:none;stroke-width:4.52558;paint-order:markers fill stroke"
       d="m 141.67059,161.66133 c -0.0514,-0.0336 -0.15477,0.0109 -0.29776,0.14105 l -65.007006,59.19595 c -0.285999,0.26043 -0.639889,0.756 -0.748423,1.12577 l -10.190854,42.17472 41.336513,-4.62769 c 0.28599,-0.26046 0.61933,-0.76289 0.74788,-1.12631 l 34.14628,-96.55631 c 0.0643,-0.1817 0.0647,-0.29358 0.0133,-0.32718 z m -50.743653,69.80883 a 9.2903287,9.5194993 0 0 1 9.290083,9.51945 9.2903287,9.5194993 0 0 1 -9.290083,9.51946 9.2903287,9.5194993 0 0 1 -9.290607,-9.51946 9.2903287,9.5194993 0 0 1 9.290607,-9.51945 z" />
    <circle
       style="fill:none;stroke:#000000;stroke-width:20;stroke-dasharray:none;paint-order:markers fill stroke"
       id="circle10"
       cx="100.45871"
       cy="219.06523"
       r="81.712738" />
    <circle
       style="fill:none;stroke:#000000;stroke-width:20;stroke-dasharray:none;paint-order:markers fill stroke"
       id="circle11"
       cx="100.45871"
       cy="219.06523"
       r="81.712738" />
    <path
       id="path11"
       style="stroke:none;stroke-width:4.52558;paint-order:markers fill stroke"
       d="m 141.67059,161.66133 c -0.0514,-0.0336 -0.15477,0.0109 -0.29776,0.14105 l -65.007006,59.19595 c -0.285999,0.26043 -0.639889,0.756 -0.748423,1.12577 l -10.190854,42.17472 41.336513,-4.62769 c 0.28599,-0.26046 0.61933,-0.76289 0.74788,-1.12631 l 34.14628,-96.55631 c 0.0643,-0.1817 0.0647,-0.29358 0.0133,-0.32718 z m -50.743653,69.80883 a 9.2903287,9.5194993 0 0 1 9.290083,9.51945 9.2903287,9.5194993 0 0 1 -9.290083,9.51946 9.2903287,9.5194993 0 0 1 -9.290607,-9.51946 9.2903287,9.5194993 0 0 1 9.290607,-9.51945 z" />
    <circle
       style="fill:none;stroke:#000000;stroke-width:20;stroke-dasharray:none;paint-order:markers fill stroke"
       id="circle12"
       cx="100.45871"
       cy="219.06523"
       r="81.712738" />
    <circle
       style="fill:none;stroke:#000000;stroke-width:20;stroke-dasharray:none;paint-order:markers fill stroke"
       id="circle13"
       cx="100.45871"
       cy="219.06523"
       r="81.712738" />
    <path
       id="path13"
       style="stroke:none;stroke-width:4.52558;paint-order:markers fill stroke"
       d="m 141.67059,161.66133 c -0.0514,-0.0336 -0.15477,0.0109 -0.29776,0.14105 l -65.007006,59.19595 c -0.285999,0.26043 -0.639889,0.756 -0.748423,1.12577 l -10.190854,42.17472 41.336513,-4.62769 c 0.28599,-0.26046 0.61933,-0.76289 0.74788,-1.12631 l 34.14628,-96.55631 c 0.0643,-0.1817 0.0647,-0.29358 0.0133,-0.32718 z m -50.743653,69.80883 a 9.2903287,9.5194993 0 0 1 9.290083,9.51945 9.2903287,9.5194993 0 0 1 -9.290083,9.51946 9.2903287,9.5194993 0 0 1 -9.290607,-9.51946 9.2903287,9.5194993 0 0 1 9.290607,-9.51945 z" />
    <circle
       style="fill:none;stroke:#000000;stroke-width:20;stroke-dasharray:none;paint-order:markers fill stroke"
       id="circle14"
       cx="100.45871"
       cy="219.06523"
       r="81.712738" />
    <circle
       style="fill:none;stroke:#000000;stroke-width:20;stroke-dasharray:none;paint-order:markers fill stroke"
       id="circle15"
       cx="100.45871"
       cy="219.06523"
       r="81.712738" />
    <path
       id="path15"
       style="stroke:none;stroke-width:4.52558;paint-order:markers fill stroke"
       d="m 141.67059,161.66133 c -0.0514,-0.0336 -0.15477,0.0109 -0.29776,0.14105 l -65.007006,59.19595 c -0.285999,0.26043 -0.639889,0.756 -0.748423,1.12577 l -10.190854,42.17472 41.336513,-4.62769 c 0.28599,-0.26046 0.61933,-0.76289 0.74788,-1.12631 l 34.14628,-96.55631 c 0.0643,-0.1817 0.0647,-0.29358 0.0133,-0.32718 z m -50.743653,69.80883 a 9.2903287,9.5194993 0 0 1 9.290083,9.51945 9.2903287,9.5194993 0 0 1 -9.290083,9.51946 9.2903287,9.5194993 0 0 1 -9.290607,-9.51946 9.2903287,9.5194993 0 0 1 9.290607,-9.51945 z" />
    <circle
       style="fill:none;stroke:#000000;stroke-width:20;stroke-dasharray:none;paint-order:markers fill stroke"
       id="circle16"
       cx="100.45871"
       cy="219.06523"
       r="81.712738" />
    <circle
       style="fill:none;stroke:#000000;stroke-width:20;stroke-dasharray:none;paint-order:markers fill stroke"
       id="circle17"
       cx="100.45871"
       cy="219.06523"
       r="81.712738" />
    <path
       id="path17"
       style="stroke:none;stroke-width:4.52558;paint-order:markers fill stroke"
       d="m 141.67059,161.66133 c -0.0514,-0.0336 -0.15477,0.0109 -0.29776,0.14105 l -65.007006,59.19595 c -0.285999,0.26043 -0.639889,0.756 -0.748423,1.12577 l -10.190854,42.17472 41.336513,-4.62769 c 0.28599,-0.26046 0.61933,-0.76289 0.74788,-1.12631 l 34.14628,-96.55631 c 0.0643,-0.1817 0.0647,-0.29358 0.0133,-0.32718 z m -50.743653,69.80883 a 9.2903287,9.5194993 0 0 1 9.290083,9.51945 9.2903287,9.5194993 0 0 1 -9.290083,9.51946 9.2903287,9.5194993 0 0 1 -9.290607,-9.51946 9.2903287,9.5194993 0 0 1 9.290607,-9.51945 z" />
    <circle
       style="fill:none;stroke:#000000;stroke-width:20;stroke-dasharray:none;paint-order:markers fill stroke"
       id="circle18"
       cx="100.45871"
       cy="219.06523"
       r="81.712738" />
    <circle
       style="fill:none;stroke:#000000;stroke-width:20;stroke-dasharray:none;paint-order:markers fill stroke"
       id="circle19"
       cx="100.45871"
       cy="219.06523"
       r="81.712738" />
    <path
       id="path19"
       style="stroke:none;stroke-width:4.52558;paint-order:markers fill stroke"
       d="m 141.67059,161.66133 c -0.0514,-0.0336 -0.15477,0.0109 -0.29776,0.14105 l -65.007006,59.19595 c -0.285999,0.26043 -0.639889,0.756 -0.748423,1.12577 l -10.190854,42.17472 41.336513,-4.62769 c 0.28599,-0.26046 0.61933,-0.76289 0.74788,-1.12631 l 34.14628,-96.55631 c 0.0643,-0.1817 0.0647,-0.29358 0.0133,-0.32718 z m -50.743653,69.80883 a 9.2903287,9.5194993 0 0 1 9.290083,9.51945 9.2903287,9.5194993 0 0 1 -9.290083,9.51946 9.2903287,9.5194993 0 0 1 -9.290607,-9.51946 9.2903287,9.5194993 0 0 1 9.290607,-9.51945 z" />
    <circle
       style="fill:none;stroke:#000000;stroke-width:20;stroke-dasharray:none;paint-order:markers fill stroke"
       id="circle20"
       cx="100.45871"
       cy="219.06523"
       r="81.712738" />
    <circle
       style="fill:none;stroke:#000000;stroke-width:20;stroke-dasharray:none;paint-order:markers fill stroke"
       id="circle21"
       cx="100.45871"
       cy="219.06523"
       r="81.712738" />
    <path
       id="path21"
       style="stroke:none;stroke-width:4.52558;paint-order:markers fill stroke"
       d="m 141.67059,161.66133 c -0.0514,-0.0336 -0.15477,0.0109 -0.29776,0.14105 l -65.007006,59.19595 c -0.285999,0.26043 -0.639889,0.756 -0.748423,1.12577 l -10.190854,42.17472 41.336513,-4.62769 c 0.28599,-0.26046 0.61933,-0.76289 0.74788,-1.12631 l 34.14628,-96.55631 c 0.0643,-0.1817 0.0647,-0.29358 0.0133,-0.32718 z m -50.743653,69.80883 a 9.2903287,9.5194993 0 0 1 9.290083,9.51945 9.2903287,9.5194993 0 0 1 -9.290083,9.51946 9.2903287,9.5194993 0 0 1 -9.290607,-9.51946 9.2903287,9.5194993 0 0 1 9.290607,-9.51945 z" />
    <circle
       style="fill:none;stroke:#000000;stroke-width:20;stroke-dasharray:none;paint-order:markers fill stroke"
       id="circle22"
       cx="100.45871"
       cy="219.06523"
       r="81.712738" />
    <g
       id="g39"
       transform="translate(308.18182,19.28473)">
      <circle
         style="fill:none;stroke:#000000;stroke-width:20;stroke-dasharray:none;paint-order:markers fill stroke"
         id="circle23"
         cx="-207.72311"
         cy="423.76254"
         r="81.712738" />
      <circle
         style="fill:none;stroke:#000000;stroke-width:20;stroke-dasharray:none;paint-order:markers fill stroke"
         id="circle24"
         cx="-207.72311"
         cy="423.76254"
         r="81.712738" />
      <circle
         style="fill:none;stroke:#000000;stroke-width:20;stroke-dasharray:none;paint-order:markers fill stroke"
         id="circle25"
         cx="-207.72311"
         cy="423.76254"
         r="81.712738" />
      <circle
         style="fill:none;stroke:#000000;stroke-width:20;stroke-dasharray:none;paint-order:markers fill stroke"
         id="circle26"
         cx="-207.72311"
         cy="423.76254"
         r="81.712738" />
      <circle
         style="fill:none;stroke:#000000;stroke-width:20;stroke-dasharray:none;paint-order:markers fill stroke"
         id="circle27"
         cx="-207.72311"
         cy="423.76254"
         r="81.712738" />
      <circle
         style="fill:none;stroke:#000000;stroke-width:20;stroke-dasharray:none;paint-order:markers fill stroke"
         id="circle28"
         cx="-207.72311"
         cy="423.76254"
         r="81.712738" />
      <circle
         style="fill:none;stroke:#000000;stroke-width:20;stroke-dasharray:none;paint-order:markers fill stroke"
         id="circle29"
         cx="-207.72311"
         cy="423.76254"
         r="81.712738" />
      <circle
         style="fill:none;stroke:#000000;stroke-width:20;stroke-dasharray:none;paint-order:markers fill stroke"
         id="circle30"
         cx="-207.72311"
         cy="423.76254"
         r="81.712738" />
      <circle
         style="fill:none;stroke:#000000;stroke-width:20;stroke-dasharray:none;paint-order:markers fill stroke"
         id="circle31"
         cx="-207.72311"
         cy="423.76254"
         r="81.712738" />
      <circle
         style="fill:none;stroke:#000000;stroke-width:20;stroke-dasharray:none;paint-order:markers fill stroke"
         id="circle32"
         cx="-207.72311"
         cy="423.76254"
         r="81.712738" />
      <circle
         style="fill:none;stroke:#000000;stroke-width:20;stroke-dasharray:none;paint-order:markers fill stroke"
         id="circle33"
         cx="-207.72311"
         cy="423.76254"
         r="81.712738" />
      <circle
         style="fill:none;stroke:#000000;stroke-width:20;stroke-dasharray:none;paint-order:markers fill stroke"
         id="circle34"
         cx="-207.72311"
         cy="423.76254"
         r="81.712738" />
      <circle
         style="fill:none;stroke:#000000;stroke-width:20;stroke-dasharray:none;paint-order:markers fill stroke"
         id="circle35"
         cx="-207.72311"
         cy="423.76254"
         r="81.712738" />
      <circle
         style="fill:none;stroke:#000000;stroke-width:20;stroke-dasharray:none;paint-order:markers fill stroke"
         id="circle36"
         cx="-207.72311"
         cy="423.76254"
         r="81.712738" />
      <circle
         style="fill:none;stroke:#000000;stroke-width:20;stroke-dasharray:none;paint-order:markers fill stroke"
         id="circle37"
         cx="-207.72311"
         cy="423.76254"
         r="81.712738" />
      <circle
         style="fill:none;stroke:#000000;stroke-width:20;stroke-dasharray:none;paint-order:markers fill stroke"
         id="circle38"
         cx="-207.72311"
         cy="423.76254"
         r="81.712738" />
      <path
         id="rect39"
         style="stroke-width:7.86925;paint-order:markers fill stroke"
         d="m -63.429357,346.72332 -68.179023,-1.7e-4 -3.8e-4,71.03999 68.179656,6e-5 z m -41.128303,20.24086 a 27.682902,7.0920574 45 0 1 25.980441,28.50298 27.682902,7.0920574 45 0 1 -11.903243,2.05512 27.682902,7.0920574 45 0 1 -25.979808,-28.50309 27.682902,7.0920574 45 0 1 11.90261,-2.05501 z"
         transform="matrix(0.75612628,-0.65442574,-0.34832456,0.93737399,0,0)" />
    </g>
    <g
       id="g54"
       transform="matrix(0.12210941,0,0,0.12210941,-248.06394,317.07607)">
      <circle
         style="fill:none;stroke:#000000;stroke-width:20;stroke-dasharray:none;paint-order:markers fill stroke"
         id="circle39"
         cx="-207.72311"
         cy="423.76254"
         r="81.712738" />
      <circle
         style="fill:none;stroke:#000000;stroke-width:20;stroke-dasharray:none;paint-order:markers fill stroke"
         id="circle40"
         cx="-207.72311"
         cy="423.76254"
         r="81.712738" />
      <circle
         style="fill:none;stroke:#000000;stroke-width:20;stroke-dasharray:none;paint-order:markers fill stroke"
         id="circle41"
         cx="-207.72311"
         cy="423.76254"
         r="81.712738" />
      <circle
         style="fill:none;stroke:#000000;stroke-width:20;stroke-dasharray:none;paint-order:markers fill stroke"
         id="circle42"
         cx="-207.72311"
         cy="423.76254"
         r="81.712738" />
      <circle
         style="fill:none;stroke:#000000;stroke-width:20;stroke-dasharray:none;paint-order:markers fill stroke"
         id="circle43"
         cx="-207.72311"
         cy="423.76254"
         r="81.712738" />
      <circle
         style="fill:none;stroke:#000000;stroke-width:20;stroke-dasharray:none;paint-order:markers fill stroke"
         id="circle44"
         cx="-207.72311"
         cy="423.76254"
         r="81.712738" />
      <circle
         style="fill:none;stroke:#000000;stroke-width:20;stroke-dasharray:none;paint-order:markers fill stroke"
         id="circle45"
         cx="-207.72311"
         cy="423.76254"
         r="81.712738" />
      <circle
         style="fill:none;stroke:#000000;stroke-width:20;stroke-dasharray:none;paint-order:markers fill stroke"
         id="circle46"
         cx="-207.72311"
         cy="423.76254"
         r="81.712738" />
      <circle
         style="fill:none;stroke:#000000;stroke-width:20;stroke-dasharray:none;paint-order:markers fill stroke"
         id="circle47"
         cx="-207.72311"
         cy="423.76254"
         r="81.712738" />
      <circle
         style="fill:none;stroke:#000000;stroke-width:20;stroke-dasharray:none;paint-order:markers fill stroke"
         id="circle48"
         cx="-207.72311"
         cy="423.76254"
         r="81.712738" />
      <circle
         style="fill:none;stroke:#000000;stroke-width:20;stroke-dasharray:none;paint-order:markers fill stroke"
         id="circle49"
         cx="-207.72311"
         cy="423.76254"
         r="81.712738" />
      <circle
         style="fill:none;stroke:#000000;stroke-width:20;stroke-dasharray:none;paint-order:markers fill stroke"
         id="circle50"
         cx="-207.72311"
         cy="423.76254"
         r="81.712738" />
      <circle
         style="fill:none;stroke:#000000;stroke-width:20;stroke-dasharray:none;paint-order:markers fill stroke"
         id="circle51"
         cx="-207.72311"
         cy="423.76254"
         r="81.712738" />
      <circle
         style="fill:none;stroke:#000000;stroke-width:20;stroke-dasharray:none;paint-order:markers fill stroke"
         id="circle52"
         cx="-207.72311"
         cy="423.76254"
         r="81.712738" />
      <circle
         style="fill:none;stroke:#000000;stroke-width:20;stroke-dasharray:none;paint-order:markers fill stroke"
         id="circle53"
         cx="-207.72311"
         cy="423.76254"
         r="81.712738" />
      <circle
         style="fill:none;stroke:#000000;stroke-width:20;stroke-dasharray:none;paint-order:markers fill stroke"
         id="circle54"
         cx="-207.72311"
         cy="423.76254"
         r="81.712738" />
      <path
         id="path54"
         style="stroke-width:7.86925;paint-order:markers fill stroke"
         d="m -63.429357,346.72332 -68.179023,-1.7e-4 -3.8e-4,71.03999 68.179656,6e-5 z m -41.128303,20.24086 a 27.682902,7.0920574 45 0 1 25.980441,28.50298 27.682902,7.0920574 45 0 1 -11.903243,2.05512 27.682902,7.0920574 45 0 1 -25.979808,-28.50309 27.682902,7.0920574 45 0 1 11.90261,-2.05501 z"
         transform="matrix(0.75612628,-0.65442574,-0.34832456,0.93737399,0,0)" />
    </g>
    <g
       id="g71"
       transform="translate(-2.0490026,-10.847661)">
      <g
         id="g70"
         inkscape:export-filename="g70.svg"
         inkscape:export-xdpi="64.302391"
         inkscape:export-ydpi="64.302391">
        <circle
           style="fill:none;stroke:#ffffff;stroke-width:2.44219;stroke-dasharray:none;paint-order:markers fill stroke"
           id="circle70"
           cx="-257.67438"
           cy="417.75647"
           r="9.9778938" />
        <path
           id="path70"
           style="fill:#ffffff;stroke-width:0.666306;paint-order:markers fill stroke"
           d="m -252.9133,410.76651 -6.29497,5.44828 -3.02163,8.13142 6.29503,-5.44834 z m -4.6583,5.60344 a 1.1864038,1.1864039 34.65824 0 1 1.18644,1.18638 1.1864038,1.1864039 34.65824 0 1 -1.18644,1.18644 1.1864038,1.1864039 34.65824 0 1 -1.18638,-1.18644 1.1864038,1.1864039 34.65824 0 1 1.18638,-1.18638 z" />
      </g>
    </g>
    <g
       id="g73"
       transform="matrix(0.56411713,0,0,0.56411713,-83.931135,167.44855)"
       inkscape:export-filename="g73.svg"
       inkscape:export-xdpi="64.302391"
       inkscape:export-ydpi="64.302391">
      <g
         id="g72"
         inkscape:export-filename="g70.svg"
         inkscape:export-xdpi="64.302391"
         inkscape:export-ydpi="64.302391">
        <circle
           style="fill:none;stroke:#ffffff;stroke-width:2.44219;stroke-dasharray:none;paint-order:markers fill stroke"
           id="circle71"
           cx="-257.67438"
           cy="417.75647"
           r="9.9778938" />
        <path
           id="path71"
           style="fill:#ffffff;stroke-width:0.666306;paint-order:markers fill stroke"
           d="m -252.9133,410.76651 -6.29497,5.44828 -3.02163,8.13142 6.29503,-5.44834 z m -4.6583,5.60344 a 1.1864038,1.1864039 34.65824 0 1 1.18644,1.18638 1.1864038,1.1864039 34.65824 0 1 -1.18644,1.18644 1.1864038,1.1864039 34.65824 0 1 -1.18638,-1.18644 1.1864038,1.1864039 34.65824 0 1 1.18638,-1.18638 z" />
      </g>
    </g>
    <g
       id="g75"
       inkscape:export-filename="g75.svg"
       inkscape:export-xdpi="64.302391"
       inkscape:export-ydpi="64.302391">
      <circle
         style="fill:none;stroke:#2f6f29;stroke-width:1.37768;stroke-dasharray:none;paint-order:markers fill stroke;stroke-opacity:1"
         id="circle73"
         cx="-229.28967"
         cy="422.63791"
         r="5.6287007" />
      <path
         id="path73"
         style="fill:#2f6f29;stroke-width:0.375875;paint-order:markers fill stroke;fill-opacity:1"
         d="m -226.60386,418.69476 -3.5511,3.07347 -1.70455,4.58708 3.55113,-3.07351 z m -2.62783,3.161 a 0.66927071,0.66927076 34.65824 0 1 0.66929,0.66926 0.66927071,0.66927076 34.65824 0 1 -0.66929,0.66929 0.66927071,0.66927076 34.65824 0 1 -0.66925,-0.66929 0.66927071,0.66927076 34.65824 0 1 0.66925,-0.66926 z" />
    </g>
  </g>
</svg>
